<?xml version="1.0" encoding="utf-8"?>
<!-- Svg Vector Icons : http://www.onlinewebfonts.com/icon -->
<!DOCTYPE svg PUBLIC "-//W3C//DTD SVG 1.1//EN" "http://www.w3.org/Graphics/SVG/1.1/DTD/svg11.dtd">
<svg version="1.1" xmlns="http://www.w3.org/2000/svg" xmlns:xlink="http://www.w3.org/1999/xlink" x="0px" y="0px" viewBox="0 0 1000 1000" enable-background="new 0 0 1000 1000" xml:space="preserve">
<metadata> Svg Vector Icons : http://www.onlinewebfonts.com/icon </metadata>
<g><path d="M849.7,40.8c0-17-13.8-30.8-30.8-30.8H151.8c-17,0-30.8,13.8-30.8,30.8v815.8c0,17,13.8,30.8,30.8,30.8s30.8-13.8,30.8-30.8v-785h636.3C835.9,71.6,849.7,57.8,849.7,40.8z" fill="white"/><path d="M848.2,122.5H249.5c-17,0-30.8,13.8-30.8,30.8v798c0,11.9,6.9,22.8,17.7,27.9c10.8,5.1,23.5,3.5,32.7-4.1l282.9-233.2l276,240.5c5.7,5,12.9,7.6,20.3,7.6c4.3,0,8.7-0.9,12.8-2.8c11-5,18.1-16,18.1-28V153.3C879,136.3,865.2,122.5,848.2,122.5z M817.4,891.5L572.7,678.3c-5.8-5.1-13-7.6-20.2-7.6c-6.9,0-13.9,2.3-19.6,7L280.3,886V184.1h537.1V891.5z" fill="white"/></g>
</svg>